# xmcd
#
# Track frame offsets:
# 150
# 15721
# 37538
# 54919
# 72003
# 85586
# 102045
# 115565
# 133515
# 146833
# 163021
# 179869
# 195082
# 213988
# 234790
# 254863
# 267358
# 278484
# 300062
# 317978
#
# Disc length: 4511 seconds
#
#
# Revision: 0
# Processed by: cddbd v1.5.1PL0 Copyright (c) Steve Scherf et al.
# Submitted via: FreeRIP 2.90 
#
DISCID=01119d14
DTITLE=Jadson e Milton - Acústico
DYEAR=2005
DGENRE=Acoustic
TTITLE0=Saudade
TTITLE1=Talismã
TTITLE2=Só Pro Meu Prazer
TTITLE3=Um Sonho de Amor
TTITLE4=Aguenta Coração
TTITLE5=Ainda é Tempo
TTITLE6=O Amor Está Aqui
TTITLE7=Se Não Tivesse Ido
TTITLE8=Depois Que Você Matar Meu Coração
TTITLE9=Essa Noite Foi Maravilhosa
TTITLE10=Amanhã
TTITLE11=Apaixonado (Imbranato)
TTITLE12=Beijo
TTITLE13=Coração de Pedra
TTITLE14=Dou A Vida Por Um Beijo
TTITLE15=Recordações
TTITLE16=Machuca Demais
TTITLE17=Yolanda
TTITLE18=Você Me Vira a Cabeça
TTITLE19=Tinha Que Ser Agora
EXTD=CD ao vivo gravado em Itabaiana/SE e Serrinha/BA
EXTT0=
EXTT1=
EXTT2=
EXTT3=
EXTT4=
EXTT5=
EXTT6=
EXTT7=
EXTT8=
EXTT9=
EXTT10=
EXTT11=
EXTT12=
EXTT13=
EXTT14=
EXTT15=
EXTT16=
EXTT17=
EXTT18=
EXTT19=
PLAYORDER=
